<svg width="96" height="120" viewBox="0 0 96 120" fill="none" xmlns="http://www.w3.org/2000/svg">
<rect x="0.5" y="0.5" width="95" height="95" rx="23.5" fill="#FDFDFE" stroke="#92B558"/>
<path d="M61.7979 48.868C64.3564 58.1795 61.6114 63.1989 53.3709 62.3493C45.1303 61.4996 29.8656 51.4414 30.7436 42.9262C31.6216 34.4109 39.3571 29.7401 47.5977 30.5897C56.4246 32.7318 59.2394 39.5565 61.7979 48.868Z" fill="#92B558"/>
<path d="M21.4401 34.5503C19.3511 33.3886 20.1483 32.1656 24.0731 31.113C27.9978 30.0604 36.0841 29.5064 36.4939 31.0343C36.9037 32.5623 33.7456 34.45 29.8209 35.5026C25.4984 36.4274 23.5291 35.712 21.4401 34.5503Z" fill="#92B558"/>
<path d="M47.0609 19.4581C47.1716 17.0704 45.7122 17.1052 42.7526 19.8896C39.7931 22.6739 35.0688 29.26 36.1528 30.4122C37.2367 31.5643 40.5033 29.8713 43.4629 27.0869C46.5229 23.8971 46.9502 21.8458 47.0609 19.4581Z" fill="#92B558"/>
<rect x="27.0642" y="48" width="35.2379" height="4" transform="rotate(50 27.0642 48)" fill="#92B558"/>
<rect x="66.5359" y="62" width="13.3762" height="9.83731" transform="rotate(50 66.5359 62)" fill="#92B558"/>
<rect x="54.0642" y="25" width="35.2379" height="4" transform="rotate(50 54.0642 25)" fill="#92B558"/>
<rect x="46.8855" y="74.7466" width="35.3874" height="4" transform="rotate(-40 46.8855 74.7466)" fill="#92B558"/>
</svg>
