<svg width="96" height="120" viewBox="0 0 96 120" fill="none" xmlns="http://www.w3.org/2000/svg">
<rect x="0.5" y="0.5" width="95" height="95" rx="23.5" fill="#FDFDFE" stroke="#92B558"/>
<rect opacity="0.3" x="32.3137" y="15" width="61.5513" height="16" transform="rotate(45 32.3137 15)" fill="#92B558"/>
<rect opacity="0.3" x="34.3137" y="40" width="42.3146" height="16" transform="rotate(45 34.3137 40)" fill="#92B558"/>
<rect x="34.3137" y="40" width="20" height="16" transform="rotate(45 34.3137 40)" fill="#92B558"/>
<rect x="34.4142" y="37" width="6" height="2" rx="1" transform="rotate(45 34.4142 37)" fill="#92B558"/>
<rect x="21.4142" y="50" width="6" height="2" rx="1" transform="rotate(45 21.4142 50)" fill="#92B558"/>
<rect x="47.4142" y="50" width="6" height="2" rx="1" transform="rotate(45 47.4142 50)" fill="#92B558"/>
<rect x="34.4142" y="63" width="6" height="2" rx="1" transform="rotate(45 34.4142 63)" fill="#92B558"/>
</svg>
