<svg width="96" height="120" viewBox="0 0 96 120" fill="none" xmlns="http://www.w3.org/2000/svg">
<path d="M27.3734 119V105.705H31.9297C33.4332 105.705 34.5776 106.007 35.3629 106.609C36.1481 107.212 36.5408 108.11 36.5408 109.303C36.5408 109.912 36.3764 110.46 36.0477 110.947C35.719 111.434 35.2381 111.811 34.605 112.079C35.3233 112.274 35.8773 112.642 36.2668 113.184C36.6625 113.719 36.8604 114.365 36.8604 115.119C36.8604 116.367 36.4586 117.326 35.6551 117.996C34.8576 118.665 33.7132 119 32.2219 119H27.3734ZM29.6835 113.001V117.156H32.2493C32.9736 117.156 33.5398 116.976 33.9476 116.617C34.3555 116.258 34.5594 115.759 34.5594 115.119C34.5594 113.738 33.8533 113.031 32.441 113.001H29.6835ZM29.6835 111.303H31.9479C32.6662 111.303 33.2263 111.141 33.628 110.819C34.0359 110.49 34.2398 110.027 34.2398 109.431C34.2398 108.773 34.0511 108.299 33.6737 108.006C33.3024 107.714 32.721 107.568 31.9297 107.568H29.6835V111.303ZM38.5404 113.969C38.5404 113.001 38.7322 112.131 39.1157 111.357C39.4992 110.578 40.0379 109.982 40.7318 109.568C41.4258 109.148 42.2232 108.938 43.1241 108.938C44.4572 108.938 45.5377 109.367 46.3656 110.225C47.1995 111.084 47.65 112.222 47.7169 113.64L47.7261 114.161C47.7261 115.135 47.5374 116.005 47.16 116.772C46.7886 117.539 46.253 118.133 45.5529 118.553C44.859 118.973 44.0555 119.183 43.1424 119.183C41.7484 119.183 40.6314 118.72 39.7914 117.795C38.9574 116.863 38.5404 115.625 38.5404 114.078V113.969ZM40.7592 114.161C40.7592 115.177 40.9692 115.975 41.3893 116.553C41.8093 117.125 42.3937 117.411 43.1424 117.411C43.8911 117.411 44.4724 117.119 44.8864 116.535C45.3064 115.95 45.5164 115.095 45.5164 113.969C45.5164 112.971 45.3003 112.179 44.8681 111.595C44.442 111.01 43.8607 110.718 43.1241 110.718C42.3997 110.718 41.8245 111.007 41.3984 111.586C40.9723 112.158 40.7592 113.016 40.7592 114.161ZM52.3828 106.719V109.12H54.1268V110.764H52.3828V116.279C52.3828 116.656 52.4559 116.93 52.602 117.101C52.7541 117.265 53.022 117.347 53.4055 117.347C53.6611 117.347 53.9198 117.317 54.1816 117.256V118.973C53.6764 119.113 53.1894 119.183 52.7207 119.183C51.0162 119.183 50.164 118.242 50.164 116.361V110.764H48.5387V109.12H50.164V106.719H52.3828ZM69.284 119H60.3449V117.475L64.7734 112.645C65.4125 111.933 65.866 111.339 66.1339 110.864C66.4078 110.384 66.5448 109.903 66.5448 109.422C66.5448 108.789 66.3652 108.277 66.0061 107.888C65.653 107.498 65.1751 107.303 64.5725 107.303C63.8542 107.303 63.2972 107.523 62.9016 107.961C62.5059 108.399 62.3081 108.999 62.3081 109.76H60.0893C60.0893 108.95 60.2719 108.223 60.6371 107.577C61.0084 106.926 61.535 106.421 62.2167 106.062C62.9046 105.702 63.6959 105.523 64.5908 105.523C65.8813 105.523 66.8978 105.849 67.6405 106.5C68.3892 107.145 68.7636 108.04 68.7636 109.184C68.7636 109.848 68.5749 110.545 68.1975 111.275C67.8261 112 67.2144 112.824 66.3622 113.75L63.1116 117.229H69.284V119Z" fill="#1D1D1F"/>
<rect x="0.5" y="0.5" width="95" height="95" rx="23.5" fill="#FDFDFE" stroke="#92B558"/>
<path fill-rule="evenodd" clip-rule="evenodd" d="M36 20C32.6863 20 30 22.6863 30 26V38C30 41.3137 32.6863 44 36 44H60C63.3137 44 66 41.3137 66 38V26C66 22.6863 63.3137 20 60 20H36ZM18 54C18 50.6863 20.6863 48 24 48H72C75.3137 48 78 50.6863 78 54C78 57.3137 75.3137 60 72 60H24C20.6863 60 18 57.3137 18 54ZM34 70C34 73.3137 31.3137 76 28 76C24.6863 76 22 73.3137 22 70C22 66.6863 24.6863 64 28 64C31.3137 64 34 66.6863 34 70ZM54 70C54 73.3137 51.3137 76 48 76C44.6863 76 42 73.3137 42 70C42 66.6863 44.6863 64 48 64C51.3137 64 54 66.6863 54 70ZM68 76C71.3137 76 74 73.3137 74 70C74 66.6863 71.3137 64 68 64C64.6863 64 62 66.6863 62 70C62 73.3137 64.6863 76 68 76Z" fill="#92B558"/>
</svg>
