<svg width="96" height="120" viewBox="0 0 96 120" fill="none" xmlns="http://www.w3.org/2000/svg">
<path d="M27.3734 119V105.705H31.9297C33.4332 105.705 34.5776 106.007 35.3629 106.609C36.1481 107.212 36.5408 108.11 36.5408 109.303C36.5408 109.912 36.3764 110.46 36.0477 110.947C35.719 111.434 35.2381 111.811 34.605 112.079C35.3233 112.274 35.8773 112.642 36.2668 113.184C36.6625 113.719 36.8604 114.365 36.8604 115.119C36.8604 116.367 36.4586 117.326 35.6551 117.996C34.8576 118.665 33.7132 119 32.2219 119H27.3734ZM29.6835 113.001V117.156H32.2493C32.9736 117.156 33.5398 116.976 33.9476 116.617C34.3555 116.258 34.5594 115.759 34.5594 115.119C34.5594 113.738 33.8533 113.031 32.441 113.001H29.6835ZM29.6835 111.303H31.9479C32.6662 111.303 33.2263 111.141 33.628 110.819C34.0359 110.49 34.2398 110.027 34.2398 109.431C34.2398 108.773 34.0511 108.299 33.6737 108.006C33.3024 107.714 32.721 107.568 31.9297 107.568H29.6835V111.303ZM38.5404 113.969C38.5404 113.001 38.7322 112.131 39.1157 111.357C39.4992 110.578 40.0379 109.982 40.7318 109.568C41.4258 109.148 42.2232 108.938 43.1241 108.938C44.4572 108.938 45.5377 109.367 46.3656 110.225C47.1995 111.084 47.65 112.222 47.7169 113.64L47.7261 114.161C47.7261 115.135 47.5374 116.005 47.16 116.772C46.7886 117.539 46.253 118.133 45.5529 118.553C44.859 118.973 44.0555 119.183 43.1424 119.183C41.7484 119.183 40.6314 118.72 39.7914 117.795C38.9574 116.863 38.5404 115.625 38.5404 114.078V113.969ZM40.7592 114.161C40.7592 115.177 40.9692 115.975 41.3893 116.553C41.8093 117.125 42.3937 117.411 43.1424 117.411C43.8911 117.411 44.4724 117.119 44.8864 116.535C45.3064 115.95 45.5164 115.095 45.5164 113.969C45.5164 112.971 45.3003 112.179 44.8681 111.595C44.442 111.01 43.8607 110.718 43.1241 110.718C42.3997 110.718 41.8245 111.007 41.3984 111.586C40.9723 112.158 40.7592 113.016 40.7592 114.161ZM52.3828 106.719V109.12H54.1268V110.764H52.3828V116.279C52.3828 116.656 52.4559 116.93 52.602 117.101C52.7541 117.265 53.022 117.347 53.4055 117.347C53.6611 117.347 53.9198 117.317 54.1816 117.256V118.973C53.6764 119.113 53.1894 119.183 52.7207 119.183C51.0162 119.183 50.164 118.242 50.164 116.361V110.764H48.5387V109.12H50.164V106.719H52.3828ZM60.9384 112.408L61.6598 105.705H68.8001V107.623H63.5042L63.139 110.8C63.7538 110.447 64.4477 110.271 65.2208 110.271C66.4869 110.271 67.47 110.676 68.1701 111.485C68.8762 112.295 69.2292 113.385 69.2292 114.754C69.2292 116.106 68.8397 117.183 68.0605 117.986C67.2813 118.784 66.213 119.183 64.8556 119.183C63.6381 119.183 62.6276 118.839 61.8241 118.151C61.0267 117.457 60.5945 116.544 60.5275 115.412H62.6733C62.7585 116.057 62.9898 116.553 63.3672 116.9C63.7446 117.241 64.2377 117.411 64.8464 117.411C65.5282 117.411 66.0578 117.168 66.4352 116.681C66.8187 116.194 67.0104 115.53 67.0104 114.69C67.0104 113.881 66.8004 113.241 66.3804 112.773C65.9604 112.298 65.3821 112.061 64.6456 112.061C64.2438 112.061 63.9029 112.115 63.6229 112.225C63.3429 112.328 63.0385 112.535 62.7098 112.846L60.9384 112.408Z" fill="#1D1D1F"/>
<rect x="0.5" y="0.5" width="95" height="95" rx="23.5" fill="#FDFDFE" stroke="#92B558"/>
<path fill-rule="evenodd" clip-rule="evenodd" d="M36 28C32.6863 28 30 30.6863 30 34V46C30 49.3137 32.6863 52 36 52H60C63.3137 52 66 49.3137 66 46V34C66 30.6863 63.3137 28 60 28H36ZM96 56H0V68H96V56Z" fill="#92B558"/>
</svg>
