<svg width="96" height="120" viewBox="0 0 96 120" fill="none" xmlns="http://www.w3.org/2000/svg">
<path d="M27.3734 119V105.705H31.9297C33.4332 105.705 34.5776 106.007 35.3629 106.609C36.1481 107.212 36.5408 108.11 36.5408 109.303C36.5408 109.912 36.3764 110.46 36.0477 110.947C35.719 111.434 35.2381 111.811 34.605 112.079C35.3233 112.274 35.8773 112.642 36.2668 113.184C36.6625 113.719 36.8604 114.365 36.8604 115.119C36.8604 116.367 36.4586 117.326 35.6551 117.996C34.8576 118.665 33.7132 119 32.2219 119H27.3734ZM29.6835 113.001V117.156H32.2493C32.9736 117.156 33.5398 116.976 33.9476 116.617C34.3555 116.258 34.5594 115.759 34.5594 115.119C34.5594 113.738 33.8533 113.031 32.441 113.001H29.6835ZM29.6835 111.303H31.9479C32.6662 111.303 33.2263 111.141 33.628 110.819C34.0359 110.49 34.2398 110.027 34.2398 109.431C34.2398 108.773 34.0511 108.299 33.6737 108.006C33.3024 107.714 32.721 107.568 31.9297 107.568H29.6835V111.303ZM38.5404 113.969C38.5404 113.001 38.7322 112.131 39.1157 111.357C39.4992 110.578 40.0379 109.982 40.7318 109.568C41.4258 109.148 42.2232 108.938 43.1241 108.938C44.4572 108.938 45.5377 109.367 46.3656 110.225C47.1995 111.084 47.65 112.222 47.7169 113.64L47.7261 114.161C47.7261 115.135 47.5374 116.005 47.16 116.772C46.7886 117.539 46.253 118.133 45.5529 118.553C44.859 118.973 44.0555 119.183 43.1424 119.183C41.7484 119.183 40.6314 118.72 39.7914 117.795C38.9574 116.863 38.5404 115.625 38.5404 114.078V113.969ZM40.7592 114.161C40.7592 115.177 40.9692 115.975 41.3893 116.553C41.8093 117.125 42.3937 117.411 43.1424 117.411C43.8911 117.411 44.4724 117.119 44.8864 116.535C45.3064 115.95 45.5164 115.095 45.5164 113.969C45.5164 112.971 45.3003 112.179 44.8681 111.595C44.442 111.01 43.8607 110.718 43.1241 110.718C42.3997 110.718 41.8245 111.007 41.3984 111.586C40.9723 112.158 40.7592 113.016 40.7592 114.161ZM52.3828 106.719V109.12H54.1268V110.764H52.3828V116.279C52.3828 116.656 52.4559 116.93 52.602 117.101C52.7541 117.265 53.022 117.347 53.4055 117.347C53.6611 117.347 53.9198 117.317 54.1816 117.256V118.973C53.6764 119.113 53.1894 119.183 52.7207 119.183C51.0162 119.183 50.164 118.242 50.164 116.361V110.764H48.5387V109.12H50.164V106.719H52.3828ZM66.353 119H64.1434V108.326L60.8836 109.44V107.568L66.07 105.66H66.353V119Z" fill="#1D1D1F"/>
<rect x="0.5" y="0.5" width="95" height="95" rx="23.5" fill="#FDFDFE" stroke="#92B558"/>
<path fill-rule="evenodd" clip-rule="evenodd" d="M50 32C50 31.7374 49.9483 31.4773 49.8478 31.2346C49.7472 30.992 49.5999 30.7715 49.4142 30.5858C49.2285 30.4001 49.008 30.2528 48.7654 30.1522C48.5227 30.0517 48.2626 30 48 30C47.7374 30 47.4773 30.0517 47.2346 30.1522C46.992 30.2528 46.7715 30.4001 46.5858 30.5858C46.4001 30.7715 46.2528 30.992 46.1522 31.2346C46.0517 31.4773 46 31.7374 46 32V33.6243C43.0075 32.6595 36.9659 32 30 32C20.0589 32 12 33.3431 12 35C12 36.6569 20.0589 38 30 38C36.9659 38 43.0075 37.3405 46 36.3757V41H48C44.8483 41 41.7274 41.6208 38.8156 42.8269C35.9038 44.033 33.258 45.8008 31.0294 48.0294C28.8008 50.258 27.033 52.9038 25.8269 55.8156C24.6208 58.7274 24 61.8483 24 65L48 65H72C72 61.8483 71.3792 58.7274 70.1731 55.8156C68.967 52.9038 67.1992 50.258 64.9706 48.0294C62.742 45.8008 60.0962 44.033 57.1844 42.8269C54.2726 41.6208 51.1517 41 48 41H50V36.3757C52.9925 37.3405 59.0341 38 66 38C75.9411 38 84 36.6569 84 35C84 33.3431 75.9411 32 66 32C59.0341 32 52.9925 32.6595 50 33.6243V32Z" fill="#92B558"/>
</svg>
