<svg width="96" height="120" viewBox="0 0 96 120" fill="none" xmlns="http://www.w3.org/2000/svg">
<path d="M27.3734 119V105.705H31.9297C33.4332 105.705 34.5776 106.007 35.3629 106.609C36.1481 107.212 36.5408 108.11 36.5408 109.303C36.5408 109.912 36.3764 110.46 36.0477 110.947C35.719 111.434 35.2381 111.811 34.605 112.079C35.3233 112.274 35.8773 112.642 36.2668 113.184C36.6625 113.719 36.8604 114.365 36.8604 115.119C36.8604 116.367 36.4586 117.326 35.6551 117.996C34.8576 118.665 33.7132 119 32.2219 119H27.3734ZM29.6835 113.001V117.156H32.2493C32.9736 117.156 33.5398 116.976 33.9476 116.617C34.3555 116.258 34.5594 115.759 34.5594 115.119C34.5594 113.738 33.8533 113.031 32.441 113.001H29.6835ZM29.6835 111.303H31.9479C32.6662 111.303 33.2263 111.141 33.628 110.819C34.0359 110.49 34.2398 110.027 34.2398 109.431C34.2398 108.773 34.0511 108.299 33.6737 108.006C33.3024 107.714 32.721 107.568 31.9297 107.568H29.6835V111.303ZM38.5404 113.969C38.5404 113.001 38.7322 112.131 39.1157 111.357C39.4992 110.578 40.0379 109.982 40.7318 109.568C41.4258 109.148 42.2232 108.938 43.1241 108.938C44.4572 108.938 45.5377 109.367 46.3656 110.225C47.1995 111.084 47.65 112.222 47.7169 113.64L47.7261 114.161C47.7261 115.135 47.5374 116.005 47.16 116.772C46.7886 117.539 46.253 118.133 45.5529 118.553C44.859 118.973 44.0555 119.183 43.1424 119.183C41.7484 119.183 40.6314 118.72 39.7914 117.795C38.9574 116.863 38.5404 115.625 38.5404 114.078V113.969ZM40.7592 114.161C40.7592 115.177 40.9692 115.975 41.3893 116.553C41.8093 117.125 42.3937 117.411 43.1424 117.411C43.8911 117.411 44.4724 117.119 44.8864 116.535C45.3064 115.95 45.5164 115.095 45.5164 113.969C45.5164 112.971 45.3003 112.179 44.8681 111.595C44.442 111.01 43.8607 110.718 43.1241 110.718C42.3997 110.718 41.8245 111.007 41.3984 111.586C40.9723 112.158 40.7592 113.016 40.7592 114.161ZM52.3828 106.719V109.12H54.1268V110.764H52.3828V116.279C52.3828 116.656 52.4559 116.93 52.602 117.101C52.7541 117.265 53.022 117.347 53.4055 117.347C53.6611 117.347 53.9198 117.317 54.1816 117.256V118.973C53.6764 119.113 53.1894 119.183 52.7207 119.183C51.0162 119.183 50.164 118.242 50.164 116.361V110.764H48.5387V109.12H50.164V106.719H52.3828ZM62.9107 111.339H64.2621C64.9438 111.333 65.4825 111.157 65.8782 110.81C66.28 110.463 66.4809 109.96 66.4809 109.303C66.4809 108.67 66.3135 108.18 65.9787 107.833C65.6499 107.48 65.1447 107.303 64.4629 107.303C63.8664 107.303 63.3764 107.477 62.9929 107.824C62.6094 108.165 62.4176 108.612 62.4176 109.166H60.1988C60.1988 108.484 60.3784 107.863 60.7375 107.303C61.1028 106.743 61.608 106.308 62.2533 105.998C62.9046 105.681 63.632 105.523 64.4355 105.523C65.7626 105.523 66.8035 105.858 67.5583 106.527C68.3192 107.191 68.6997 108.116 68.6997 109.303C68.6997 109.9 68.5079 110.463 68.1244 110.992C67.747 111.516 67.257 111.911 66.6543 112.179C67.3848 112.429 67.9388 112.821 68.3162 113.357C68.6997 113.893 68.8914 114.532 68.8914 115.275C68.8914 116.468 68.4805 117.417 67.6587 118.123C66.843 118.83 65.7686 119.183 64.4355 119.183C63.1572 119.183 62.1102 118.842 61.2945 118.16C60.4788 117.478 60.071 116.571 60.071 115.439H62.2898C62.2898 116.023 62.4846 116.498 62.8742 116.863C63.2698 117.229 63.7994 117.411 64.4629 117.411C65.1508 117.411 65.6926 117.229 66.0882 116.863C66.4839 116.498 66.6817 115.969 66.6817 115.275C66.6817 114.575 66.4748 114.036 66.0608 113.658C65.6469 113.281 65.0321 113.092 64.2164 113.092H62.9107V111.339Z" fill="#1D1D1F"/>
<rect x="0.5" y="0.5" width="95" height="95" rx="23.5" fill="#FDFDFE" stroke="#92B558"/>
<path fill-rule="evenodd" clip-rule="evenodd" d="M36 20C32.6863 20 30 22.6863 30 26V38C30 41.3137 32.6863 44 36 44H60C63.3137 44 66 41.3137 66 38V26C66 22.6863 63.3137 20 60 20H36ZM24 48C20.6863 48 18 50.6863 18 54C18 57.3137 20.6863 60 24 60H72C75.3137 60 78 57.3137 78 54C78 50.6863 75.3137 48 72 48H24ZM28 76C31.3137 76 34 73.3137 34 70C34 66.6863 31.3137 64 28 64C24.6863 64 22 66.6863 22 70C22 73.3137 24.6863 76 28 76ZM39 76C40.6569 76 42 74.6569 42 73C42 71.3431 40.6569 70 39 70C37.3431 70 36 71.3431 36 73C36 74.6569 37.3431 76 39 76ZM51 73C51 74.6569 49.6569 76 48 76C46.3431 76 45 74.6569 45 73C45 71.3431 46.3431 70 48 70C49.6569 70 51 71.3431 51 73ZM57 76C58.6569 76 60 74.6569 60 73C60 71.3431 58.6569 70 57 70C55.3431 70 54 71.3431 54 73C54 74.6569 55.3431 76 57 76ZM74 70C74 73.3137 71.3137 76 68 76C64.6863 76 62 73.3137 62 70C62 66.6863 64.6863 64 68 64C71.3137 64 74 66.6863 74 70ZM26 62C22.6863 62 20 64.6863 20 68V72C20 75.3137 22.6863 78 26 78H70C73.3137 78 76 75.3137 76 72V68C76 64.6863 73.3137 62 70 62H26ZM27 63C23.6863 63 21 65.6863 21 69V71C21 74.3137 23.6863 77 27 77H69C72.3137 77 75 74.3137 75 71V69C75 65.6863 72.3137 63 69 63H27Z" fill="#92B558"/>
</svg>
