<svg width="96" height="123" viewBox="0 0 96 123" fill="none" xmlns="http://www.w3.org/2000/svg">
<circle opacity="0.2" cx="48" cy="48" r="48" fill="#92B558"/>
<path d="M48 0C58.1366 1.20878e-07 68.013 3.20904 76.2137 9.16718C84.4144 15.1253 90.5183 23.5267 93.6507 33.1672C96.7831 42.8077 96.7831 53.1923 93.6507 62.8328C90.5183 72.4733 84.4144 80.8747 76.2137 86.8328C68.013 92.791 58.1366 96 48 96C37.8634 96 27.987 92.791 19.7863 86.8328C11.5856 80.8747 5.48167 72.4733 2.34929 62.8328C-0.783097 53.1923 -0.783095 42.8077 2.34929 33.1672L48 48V0Z" fill="#92B558"/>
<path d="M20.7718 116.156H26.8073V118H18.4617V104.705H20.7718V116.156ZM32.7149 118.183C31.3088 118.183 30.1674 117.741 29.2909 116.859C28.4204 115.97 27.9852 114.789 27.9852 113.316V113.042C27.9852 112.056 28.1739 111.176 28.5513 110.403C28.9348 109.624 29.4704 109.018 30.1583 108.586C30.8462 108.154 31.6132 107.938 32.4593 107.938C33.8046 107.938 34.8424 108.367 35.5729 109.225C36.3095 110.084 36.6777 111.298 36.6777 112.868V113.763H30.2222C30.2892 114.579 30.5601 115.224 31.0349 115.699C31.5158 116.174 32.1184 116.411 32.8428 116.411C33.8593 116.411 34.6872 116 35.3264 115.179L36.5225 116.32C36.1268 116.91 35.5972 117.37 34.9337 117.699C34.2763 118.021 33.5367 118.183 32.7149 118.183ZM32.4501 109.718C31.8414 109.718 31.3484 109.931 30.9709 110.357C30.5996 110.784 30.3622 111.377 30.2587 112.138H34.4863V111.974C34.4376 111.231 34.2398 110.671 33.8928 110.294C33.5458 109.91 33.065 109.718 32.4501 109.718ZM38.02 112.987C38.02 111.453 38.3791 110.23 39.0974 109.317C39.8218 108.397 40.7805 107.938 41.9736 107.938C43.0998 107.938 43.9855 108.33 44.6307 109.116L44.7312 108.12H46.7308V117.699C46.7308 118.995 46.326 120.018 45.5164 120.767C44.7129 121.515 43.6263 121.89 42.2567 121.89C41.5323 121.89 40.8231 121.738 40.1292 121.433C39.4413 121.135 38.9178 120.742 38.5587 120.255L39.6087 118.922C40.2905 119.732 41.1306 120.137 42.1289 120.137C42.8654 120.137 43.4467 119.936 43.8729 119.534C44.299 119.138 44.512 118.554 44.512 117.781V117.114C43.8729 117.827 43.0206 118.183 41.9554 118.183C40.7988 118.183 39.8522 117.723 39.1157 116.804C38.3852 115.885 38.02 114.612 38.02 112.987ZM40.2296 113.179C40.2296 114.171 40.4305 114.953 40.8323 115.526C41.2401 116.092 41.8032 116.375 42.5215 116.375C43.4163 116.375 44.0798 115.991 44.512 115.224V110.878C44.092 110.129 43.4346 109.755 42.5397 109.755C41.8093 109.755 41.2401 110.044 40.8323 110.622C40.4305 111.201 40.2296 112.053 40.2296 113.179ZM53.3689 118.183C51.9628 118.183 50.8214 117.741 49.9449 116.859C49.0744 115.97 48.6392 114.789 48.6392 113.316V113.042C48.6392 112.056 48.8279 111.176 49.2053 110.403C49.5888 109.624 50.1244 109.018 50.8123 108.586C51.5002 108.154 52.2672 107.938 53.1133 107.938C54.4586 107.938 55.4964 108.367 56.2269 109.225C56.9635 110.084 57.3317 111.298 57.3317 112.868V113.763H50.8762C50.9432 114.579 51.2141 115.224 51.6889 115.699C52.1698 116.174 52.7724 116.411 53.4968 116.411C54.5133 116.411 55.3412 116 55.9804 115.179L57.1765 116.32C56.7808 116.91 56.2513 117.37 55.5877 117.699C54.9303 118.021 54.1907 118.183 53.3689 118.183ZM53.1041 109.718C52.4954 109.718 52.0024 109.931 51.625 110.357C51.2536 110.784 51.0162 111.377 50.9127 112.138H55.1403V111.974C55.0916 111.231 54.8938 110.671 54.5468 110.294C54.1999 109.91 53.719 109.718 53.1041 109.718ZM61.121 108.12L61.185 109.262C61.9154 108.379 62.8742 107.938 64.0612 107.938C66.1187 107.938 67.1657 109.116 67.2022 111.471V118H64.9834V111.599C64.9834 110.972 64.8464 110.51 64.5725 110.211C64.3047 109.907 63.8633 109.755 63.2485 109.755C62.3537 109.755 61.6872 110.16 61.2489 110.969V118H59.0301V108.12H61.121ZM69.0558 112.987C69.0558 111.465 69.4088 110.245 70.1149 109.326C70.8211 108.4 71.7676 107.938 72.9546 107.938C74.0016 107.938 74.8478 108.303 75.493 109.033V103.975H77.7118V118H75.703L75.5935 116.977C74.93 117.781 74.0443 118.183 72.9364 118.183C71.7798 118.183 70.8424 117.717 70.1241 116.786C69.4119 115.854 69.0558 114.588 69.0558 112.987ZM71.2746 113.179C71.2746 114.183 71.4663 114.969 71.8498 115.535C72.2394 116.095 72.7903 116.375 73.5025 116.375C74.4095 116.375 75.073 115.97 75.493 115.16V110.942C75.0852 110.151 74.4278 109.755 73.5208 109.755C72.8025 109.755 72.2485 110.041 71.8589 110.613C71.4694 111.179 71.2746 112.035 71.2746 113.179Z" fill="black"/>
<path d="M39.8735 44.2117C39.8735 44.8631 39.7061 45.4444 39.3713 45.9557C39.0365 46.461 38.58 46.8597 38.0017 47.1519C38.6957 47.4745 39.2283 47.9158 39.5996 48.4758C39.977 49.0359 40.1657 49.6689 40.1657 50.375C40.1657 51.5438 39.7701 52.4721 38.9787 53.16C38.1874 53.8417 37.1343 54.1826 35.8194 54.1826C34.4985 54.1826 33.4393 53.8387 32.6419 53.1508C31.8506 52.463 31.4549 51.5377 31.4549 50.375C31.4549 49.6628 31.6436 49.0237 32.021 48.4576C32.3984 47.8915 32.928 47.4562 33.6098 47.1519C33.0376 46.8597 32.5841 46.461 32.2493 45.9557C31.9206 45.4444 31.7562 44.8631 31.7562 44.2117C31.7562 43.0795 32.1214 42.1816 32.8519 41.5181C33.5824 40.8546 34.5685 40.5229 35.8103 40.5229C37.0582 40.5229 38.0474 40.8546 38.7778 41.5181C39.5083 42.1816 39.8735 43.0795 39.8735 44.2117ZM37.9469 50.2655C37.9469 49.6081 37.7491 49.0785 37.3534 48.6767C36.9638 48.2689 36.4464 48.0649 35.8012 48.0649C35.1559 48.0649 34.6385 48.2658 34.2489 48.6676C33.8654 49.0693 33.6737 49.602 33.6737 50.2655C33.6737 50.9168 33.8624 51.4373 34.2398 51.8269C34.6233 52.2164 35.1498 52.4112 35.8194 52.4112C36.489 52.4112 37.0095 52.2225 37.3808 51.8451C37.7582 51.4677 37.9469 50.9412 37.9469 50.2655ZM37.6639 44.2939C37.6639 43.7156 37.4965 43.2408 37.1617 42.8695C36.8269 42.4921 36.3764 42.3034 35.8103 42.3034C35.2442 42.3034 34.7968 42.4829 34.4681 42.8421C34.1394 43.1951 33.975 43.6791 33.975 44.2939C33.975 44.9026 34.1394 45.3866 34.4681 45.7457C34.8029 46.1048 35.2533 46.2844 35.8194 46.2844C36.3855 46.2844 36.833 46.1048 37.1617 45.7457C37.4965 45.3866 37.6639 44.9026 37.6639 44.2939ZM50.794 48.4028C50.794 50.3142 50.4349 51.7569 49.7166 52.7308C49.0044 53.6987 47.9178 54.1826 46.4569 54.1826C45.0203 54.1826 43.9368 53.7109 43.2063 52.7673C42.4819 51.8177 42.1106 50.4146 42.0923 48.558V46.257C42.0923 44.3456 42.4484 42.9121 43.1606 41.9564C43.8789 41.0007 44.9716 40.5229 46.4386 40.5229C47.8935 40.5229 48.977 40.9885 49.6892 41.9199C50.4075 42.8512 50.7758 44.2452 50.794 46.1018V48.4028ZM48.5752 45.9192C48.5752 44.6713 48.4048 43.7582 48.0639 43.1799C47.723 42.5956 47.1813 42.3034 46.4386 42.3034C45.7142 42.3034 45.1816 42.5803 44.8407 43.1343C44.4998 43.6821 44.3203 44.5404 44.302 45.7092V48.7224C44.302 49.9642 44.4755 50.8894 44.8225 51.4981C45.1694 52.1069 45.7142 52.4112 46.4569 52.4112C47.1691 52.4112 47.6956 52.1312 48.0365 51.5712C48.3774 51.0051 48.557 50.1224 48.5752 48.9232V45.9192ZM52.6659 43.2621C52.6659 42.4586 52.9246 41.8012 53.442 41.2898C53.9594 40.7724 54.6381 40.5137 55.4782 40.5137C56.3304 40.5137 57.0122 40.7724 57.5235 41.2898C58.0409 41.8012 58.2996 42.4738 58.2996 43.3078V43.9652C58.2996 44.7626 58.0409 45.417 57.5235 45.9283C57.0122 46.4396 56.3365 46.6953 55.4964 46.6953C54.6747 46.6953 53.9959 46.4457 53.4603 45.9466C52.9307 45.4413 52.6659 44.7626 52.6659 43.9104V43.2621ZM54.2181 43.9652C54.2181 44.3852 54.3338 44.7261 54.5651 44.9878C54.8025 45.2435 55.1129 45.3713 55.4964 45.3713C55.8738 45.3713 56.1782 45.2435 56.4095 44.9878C56.6408 44.7261 56.7565 44.373 56.7565 43.9287V43.2621C56.7565 42.8421 56.6378 42.5012 56.4004 42.2395C56.1691 41.9777 55.8617 41.8468 55.4782 41.8468C55.0947 41.8468 54.7873 41.9807 54.556 42.2486C54.3307 42.5103 54.2181 42.8573 54.2181 43.2895V43.9652ZM59.0575 50.7403C59.0575 49.9246 59.3223 49.2641 59.8519 48.7589C60.3814 48.2536 61.0571 48.001 61.8789 48.001C62.7068 48.001 63.3825 48.2536 63.906 48.7589C64.4355 49.2641 64.7003 49.9459 64.7003 50.8042V51.4525C64.7003 52.2438 64.4447 52.8982 63.9333 53.4156C63.4281 53.927 62.7494 54.1826 61.8972 54.1826C61.045 54.1826 60.3571 53.93 59.8336 53.4248C59.3162 52.9134 59.0575 52.2408 59.0575 51.4068V50.7403ZM60.6097 51.4525C60.6097 51.8664 60.7284 52.2073 60.9658 52.4751C61.2093 52.7369 61.5198 52.8678 61.8972 52.8678C62.2868 52.8678 62.5911 52.743 62.8103 52.4934C63.0355 52.2377 63.1481 51.8816 63.1481 51.4251V50.7403C63.1481 50.3142 63.0294 49.9733 62.792 49.7176C62.5546 49.462 62.2502 49.3341 61.8789 49.3341C61.5015 49.3341 61.1941 49.462 60.9567 49.7176C60.7254 49.9733 60.6097 50.3264 60.6097 50.7768V51.4525ZM55.953 53.0047L54.8116 52.3473L61.3037 41.9564L62.445 42.6138L55.953 53.0047Z" fill="#F5F5F7"/>
</svg>
